HIERARCHY
ROOT Hips
{
	OFFSET -3.958830 18.904000 13.208200
	CHANNELS 6 Xposition Yposition Zposition Zrotation Yrotation Xrotation 
	JOINT LHipJoint
	{
		OFFSET 0.000000 0.000000 0.000000
		CHANNELS 3 Zrotation Yrotation Xrotation
		JOINT LeftUpLeg
		{
			OFFSET 1.800000 -1.400000 0.085000
			CHANNELS 3 Zrotation Yrotation Xrotation
			JOINT LeftLeg
			{
				OFFSET 2.215000 -6.000000 0.000000
				CHANNELS 3 Zrotation Yrotation Xrotation
				JOINT LeftFoot
				{
					OFFSET 2.500000 -6.900000 0.000000
					CHANNELS 3 Zrotation Yrotation Xrotation
					JOINT LeftToeBase
					{
						OFFSET 0.200000 -0.500000 1.950000
						CHANNELS 3 Zrotation Yrotation Xrotation
						End Site
						{
							OFFSET 0.000000 0.000000 0.000000
						}
					}
				}
			}
		}
	}
	JOINT RHipJoint
	{
		OFFSET 0.000000 0.000000 0.000000
		CHANNELS 3 Zrotation Yrotation Xrotation
		JOINT RightUpLeg
		{
			OFFSET -1.800000 -1.400000 0.085000
			CHANNELS 3 Zrotation Yrotation Xrotation
			JOINT RightLeg
			{
				OFFSET -2.215000 -6.000000 0.000000
				CHANNELS 3 Zrotation Yrotation Xrotation
				JOINT RightFoot
				{
					OFFSET -2.500000 -6.900000 0.000000
					CHANNELS 3 Zrotation Yrotation Xrotation
					JOINT RightToeBase
					{
						OFFSET -0.200000 -0.500000 1.950000
						CHANNELS 3 Zrotation Yrotation Xrotation
						End Site
						{
							OFFSET 0.000000 0.000000 0.000000
						}
					}
				}
			}
		}
	}
	JOINT LowerBack
	{
		OFFSET 0.000000 0.000000 0.000000
		CHANNELS 3 Zrotation Yrotation Xrotation
		JOINT Spine
		{
			OFFSET -0.087000 1.940000 -0.288900
			CHANNELS 3 Zrotation Yrotation Xrotation
			JOINT Spine1
			{
				OFFSET 0.000000 1.950000 0.060000
				CHANNELS 3 Zrotation Yrotation Xrotation
				JOINT Neck
				{
					OFFSET 0.000000 0.000000 0.000000
					CHANNELS 3 Zrotation Yrotation Xrotation
					JOINT Neck1
					{
						OFFSET 0.000000 1.600000 0.340000
						CHANNELS 3 Zrotation Yrotation Xrotation
						JOINT Head
						{
							OFFSET 0.000000 1.667000 -0.240000
							CHANNELS 3 Zrotation Yrotation Xrotation
							End Site
							{
								OFFSET 0.000000 0.000000 0.000000
							}
						}
					}
				}
				JOINT LeftShoulder
				{
					OFFSET 0.000000 0.000000 0.000000
					CHANNELS 3 Zrotation Yrotation Xrotation
					JOINT LeftArm
					{
						OFFSET 2.700000 1.550000 -0.730000
						CHANNELS 3 Zrotation Yrotation Xrotation
						JOINT LeftForeArm
						{
							OFFSET 5.450000 0.000000 0.000000
							CHANNELS 3 Zrotation Yrotation Xrotation
							JOINT LeftHand
							{
								OFFSET 3.450000 0.000000 0.000000
								CHANNELS 3 Zrotation Yrotation Xrotation
								JOINT LeftHandIndex1
								{
									OFFSET 0.750000 0.000000 0.000000
									CHANNELS 3 Zrotation Yrotation Xrotation
									End Site
									{
										OFFSET 0.000000 0.000000 0.000000
									}
								}
							}
						}
					}
				}
				JOINT RightShoulder
				{
					OFFSET 0.000000 0.000000 0.000000
					CHANNELS 3 Zrotation Yrotation Xrotation
					JOINT RightArm
					{
						OFFSET -2.700000 1.550000 -0.730000
						CHANNELS 3 Zrotation Yrotation Xrotation
						JOINT RightForeArm
						{
							OFFSET -5.450000 0.000000 0.000000
							CHANNELS 3 Zrotation Yrotation Xrotation
							JOINT RightHand
							{
								OFFSET -3.450000 0.000000 0.000000
								CHANNELS 3 Zrotation Yrotation Xrotation
								JOINT RightHandIndex1
								{
									OFFSET -0.750000 0.000000 0.000000
									CHANNELS 3 Zrotation Yrotation Xrotation
									End Site
									{
										OFFSET 0.000000 0.000000 0.000000
									}
								}
							}
						}
					}
				}
			}
		}
	}
}
MOTION
Frames: 10
Frame Time: 0.016667
0.546500 16.454560 -2.355270 -7.278906 -7.326937 -2.987437 -15.028522 12.893161 1.690946 13.159397 -1.436534 -6.818723 -3.890482 6.184358 16.188580 -0.989219 5.284609 3.020402 0.628940 -0.068880 0.441850 18.688011 -8.721593 5.264120 -23.392671 3.715840 -45.773031 19.532769 -31.518683 67.339701 -2.559099 -13.773244 0.259053 0.202260 0.421450 0.270890 -4.346710 -3.285635 -8.246623 20.330225 -9.522755 18.980752 -7.226172 -6.286003 2.713558 1.864980 -5.741544 -8.189897 -12.059559 6.227348 29.140986 -3.099690 2.969080 -15.072660 -27.498475 -12.029201 0.841336 -29.362911 -14.728260 2.551863 -82.348734 -48.626692 37.973215 -3.839980 3.338765 0.927070 0.230840 -0.180060 0.380210 23.437189 11.467358 7.138519 33.806453 -4.957991 -10.662820 23.032223 45.375611 6.510048 1.359917 -1.554477 -0.515460 0.486740 0.062950 -0.515330 
0.567460 16.418860 -2.382650 -7.339799 -8.133589 -3.181061 -15.041519 12.888370 1.653012 13.210475 -1.393010 -6.903861 -3.836869 6.330868 17.048016 -0.954757 5.312216 2.990400 0.653410 -0.040240 0.473670 18.685997 -8.590937 5.443975 -23.929794 4.152090 -47.009261 19.745068 -32.375672 68.901954 -2.678187 -14.078259 0.188932 0.195520 0.367810 0.276020 -4.323983 -3.370888 -8.342106 20.507963 -9.676769 20.424207 -7.406833 -6.150342 2.057096 2.072125 -5.872677 -8.333100 -12.445069 6.268578 29.700161 -3.493840 3.074860 -16.214390 -27.822688 -12.309286 0.775626 -29.081037 -14.492162 2.089538 -80.477166 -46.811981 35.265291 -3.778984 3.342417 0.948080 0.191720 -0.136240 0.375270 23.346844 11.958394 7.318794 33.914923 -4.892875 -10.937284 23.499927 46.100476 6.784460 1.384075 -1.551115 -0.485670 0.464950 0.038370 -0.517950 
0.597380 16.352410 -2.438900 -7.598638 -9.367438 -3.354216 -15.065025 12.875052 1.571084 13.364959 -1.395963 -7.517081 -3.506499 6.560904 18.920687 -0.926210 5.377007 2.936059 0.704590 0.032030 0.520710 18.685603 -8.386161 5.718995 -24.515703 4.865000 -49.206458 19.993994 -33.611453 71.224272 -2.852898 -14.529122 0.093421 0.216930 0.303740 0.266520 -4.292050 -3.491605 -8.447941 20.773692 -10.039105 22.747452 -7.456186 -6.073313 1.055227 2.166644 -6.294390 -8.267935 -13.256001 6.656150 29.755947 -3.666240 3.182240 -18.313420 -28.529994 -12.350894 0.470885 -28.299609 -14.115850 1.346338 -77.227680 -44.574078 31.544548 -3.700485 3.327288 0.971220 0.139240 -0.079710 0.378130 23.888131 12.382741 7.309881 33.190603 -4.560085 -11.038656 24.707522 47.097076 7.394539 1.411364 -1.553463 -0.454970 0.464460 -0.002930 -0.516720 
0.632220 16.267730 -2.501860 -7.380270 -10.419682 -3.810097 -15.113408 12.915834 1.512308 12.933685 -1.427868 -8.219558 -2.905828 6.704623 21.124820 -0.922115 5.450994 2.868395 0.773210 0.115920 0.580880 18.657181 -8.172228 5.968898 -25.670311 5.145924 -50.849669 20.679280 -34.860655 72.773099 -3.003141 -14.870408 0.010083 0.252820 0.228240 0.259750 -4.179749 -3.753796 -8.560590 19.964101 -10.278651 25.513159 -6.959423 -6.115662 -0.122660 2.132191 -6.675964 -8.011052 -14.071939 7.205650 30.009644 -3.473460 3.202220 -21.048740 -29.454610 -12.266107 0.033324 -27.885180 -13.864824 0.568415 -71.148901 -41.181474 25.793269 -3.610325 3.297461 1.015020 0.074440 -0.016430 0.375780 24.958374 12.675550 7.018112 31.937627 -3.465557 -10.749285 24.920260 46.300088 7.377531 1.439022 -1.532526 -0.429200 0.465680 -0.040750 -0.525660 
0.671360 16.174370 -2.568100 -7.212551 -11.754733 -4.253258 -15.149048 13.001026 1.475806 12.195544 -1.519909 -9.325542 -1.770283 6.780689 24.200417 -0.910405 5.605536 2.783045 0.822590 0.168050 0.628650 18.626637 -8.061121 6.117227 -26.154164 5.706325 -51.961563 20.403663 -34.885402 73.928813 -3.074173 -15.001798 -0.024391 0.274460 0.182620 0.260890 -4.080793 -3.951699 -8.623459 19.282058 -10.408849 28.159215 -6.650037 -6.079808 -1.318485 2.159151 -6.830381 -7.776892 -14.466988 7.841987 30.497351 -3.314840 3.412350 -22.820160 -30.568994 -12.354150 -0.262666 -27.006393 -13.333972 -0.157997 -64.939068 -37.486232 20.447772 -3.546045 3.259502 1.051980 0.032590 0.029010 0.378090 26.072583 13.004020 6.696153 31.032526 -2.152765 -10.590622 25.634136 46.438751 7.701985 1.458477 -1.522898 -0.414600 0.470200 -0.067760 -0.533830 
0.696660 16.062630 -2.621250 -6.239626 -13.735110 -4.404293 -15.204407 13.014389 1.478053 10.629639 -1.659356 -10.693987 -0.838566 6.981182 27.751170 -0.868334 5.876683 2.665086 0.816570 0.193520 0.599080 18.598757 -7.883254 6.309201 -27.312837 6.372735 -53.552498 20.501124 -34.659790 74.547877 -3.077384 -15.069832 -0.037321 0.295790 0.198110 0.241920 -3.971991 -4.137434 -8.707617 17.580383 -9.679735 29.865361 -5.765095 -5.659168 -2.348620 1.815325 -7.336341 -7.518752 -15.481894 8.665730 30.374243 -2.763340 3.337040 -22.861980 -31.622698 -11.988708 -0.525089 -27.076816 -12.559736 -0.622206 -58.063582 -33.400539 15.308072 -3.544851 3.196979 1.033510 0.034970 0.023590 0.379170 27.901861 13.290838 6.320594 29.615218 -1.060498 -10.374071 25.917390 46.712140 7.924258 1.461974 -1.520443 -0.416660 0.500150 -0.055520 -0.514750 
0.720650 15.950410 -2.661430 -5.210251 -16.138176 -4.771903 -15.252983 13.013099 1.566597 9.040425 -1.904373 -12.134766 -0.228070 7.388006 31.778448 -0.783808 6.316458 2.467339 0.838420 0.229450 0.591680 18.563124 -7.776907 6.382520 -28.021858 7.270581 -54.179063 20.591629 -33.592191 74.041562 -3.020669 -14.896774 -0.009775 0.311080 0.185070 0.255550 -3.868073 -4.249389 -8.776304 16.042901 -8.639697 31.354905 -5.089930 -4.943322 -3.287205 1.560052 -7.728907 -7.239199 -16.378384 9.509053 30.590839 -2.331030 3.395190 -22.913360 -32.878165 -11.416395 -0.850884 -27.621873 -11.726541 -0.944914 -50.114598 -28.246143 10.126507 -3.538111 3.163334 1.022390 0.030080 0.030170 0.376110 29.704631 13.353741 5.984697 29.031170 -0.405163 -10.514459 26.737024 47.657270 8.401060 1.457667 -1.556438 -0.388250 0.481740 -0.051220 -0.504610 
0.738710 15.845710 -2.675850 -4.061468 -17.690535 -5.147596 -15.289202 13.022884 1.737439 7.397094 -2.383984 -13.933698 0.654096 7.710415 36.077425 -0.691621 6.899083 2.263393 0.796710 0.166940 0.588790 18.520475 -7.774399 6.302760 -28.627584 7.677224 -53.331061 20.653012 -31.978414 72.123289 -2.864795 -14.437622 0.081445 0.289660 0.213370 0.252230 -3.758723 -4.329965 -8.831039 14.849424 -7.623735 31.971816 -4.733432 -4.194664 -4.276072 1.601027 -7.766308 -7.026413 -16.634922 9.717705 31.259501 -3.019330 3.517570 -21.987530 -34.673862 -10.985968 -1.076175 -28.846595 -10.805671 -0.895870 -41.463866 -21.294008 5.150431 -3.568590 3.028021 1.028320 0.048400 0.014240 0.362800 31.408186 13.317470 5.791174 29.202530 -0.337132 -10.956856 26.390410 47.979763 8.260495 1.451386 -1.545063 -0.421670 0.504820 -0.026010 -0.515380 
0.739660 15.746110 -2.663660 -3.058268 -18.558716 -5.407096 -15.308268 13.016062 1.931602 6.195409 -2.871968 -15.618179 1.326233 8.028704 39.708039 -0.617680 7.456587 2.061194 0.730050 0.089540 0.558780 18.484370 -7.845928 6.137353 -29.214947 7.742705 -51.520015 21.300149 -30.451275 68.985186 -2.659391 -13.840184 0.213375 0.263740 0.245890 0.235490 -3.677657 -4.318887 -8.865783 13.915096 -6.712297 31.607701 -4.603502 -3.547893 -4.886547 1.761076 -7.539985 -6.673619 -16.285835 9.702866 32.165568 -3.680490 3.683870 -21.148910 -36.352024 -10.017522 -1.239698 -30.823899 -9.183484 -0.912624 -33.351070 -15.205590 1.758659 -3.625915 2.863006 1.035220 0.074160 -0.016300 0.333800 32.696175 12.593687 5.343677 30.434316 -0.333437 -11.482361 26.214789 48.111465 8.114823 1.438423 -1.506268 -0.467800 0.530980 0.021800 -0.531700 
0.732370 15.667010 -2.645800 -2.206683 -18.542031 -5.805810 -15.321107 13.013884 2.141241 5.340827 -3.377402 -17.207569 1.775253 8.401430 42.996658 -0.494543 7.976564 1.869250 0.688910 0.037160 0.550960 18.448936 -7.932844 5.934543 -29.996899 7.524729 -49.205804 22.449890 -29.107631 65.075264 -2.461945 -13.162395 0.364962 0.225570 0.238260 0.231940 -3.598448 -4.317953 -8.905620 13.261974 -6.119799 31.086585 -4.548533 -3.149843 -5.507707 2.070449 -7.313669 -6.495591 -16.052303 9.905044 33.695635 -4.268750 4.105610 -20.675180 -37.697843 -8.841780 -1.167140 -32.976291 -6.655068 -1.146478 -25.187187 -10.160521 -0.377501 -3.654722 2.726771 1.044960 0.068980 -0.014560 0.311890 33.372495 11.714529 4.848217 32.511936 -0.318310 -12.129675 26.001278 48.398821 7.998861 1.458968 -1.472525 -0.474840 0.520940 0.040120 -0.540710 
